<svg width="164" height="28" viewBox="0 0 164 28" fill="none" xmlns="http://www.w3.org/2000/svg">
<path d="M16.6632 0.939941C16.3752 0.939941 16.2312 1.08394 16.2312 1.37194V18.6879C16.2312 20.8119 15.6552 22.4679 14.5032 23.6559C13.3152 24.8439 11.5872 25.4559 9.39119 25.4559C5.61119 25.4559 3.37919 23.4399 2.62319 19.3719C2.51519 19.0839 2.33519 18.9759 2.04719 19.0839L1.32719 19.3359C1.03919 19.4439 0.931189 19.6239 1.03919 19.9479C1.93919 24.6639 4.74719 27.0399 9.39119 27.0399C12.0912 27.0399 14.2152 26.2839 15.6912 24.7719C17.1672 23.2959 17.8872 21.2799 17.8872 18.6879V1.37194C17.8872 1.08394 17.7432 0.939941 17.4552 0.939941H16.6632Z" fill="black"/>
<path d="M27.101 1.40794C27.101 1.08394 26.957 0.939941 26.669 0.939941H25.913C25.589 0.939941 25.445 1.08394 25.445 1.40794V17.8599C25.445 20.7039 26.237 22.9359 27.821 24.5559C29.441 26.2119 31.817 27.0399 34.949 27.0399C38.045 27.0399 40.421 26.2119 42.077 24.5559C43.625 22.9359 44.417 20.7039 44.417 17.8599V1.40794C44.417 1.08394 44.273 0.939941 43.985 0.939941H43.193C42.905 0.939941 42.761 1.08394 42.761 1.40794V17.8599C42.761 20.2359 42.113 22.0719 40.817 23.4039C39.485 24.8079 37.505 25.4919 34.949 25.4919C32.357 25.4919 30.377 24.8079 29.045 23.4039C27.749 22.0719 27.101 20.2359 27.101 17.8599V1.40794Z" fill="black"/>
<path d="M52.5626 0.939941C52.2386 0.939941 52.0946 1.08394 52.0946 1.40794V26.0319C52.0946 26.3559 52.2386 26.4999 52.5626 26.4999H66.8546C67.1426 26.4999 67.2866 26.3559 67.2866 26.0319V25.3839C67.2866 25.0959 67.1426 24.9519 66.8546 24.9519H53.7506V1.40794C53.7506 1.08394 53.6066 0.939941 53.3186 0.939941H52.5626Z" fill="black"/>
<path d="M72.7274 26.0319C72.7274 26.3559 72.8714 26.4999 73.1954 26.4999H73.9514C74.2394 26.4999 74.3834 26.3559 74.3834 26.0319V1.40794C74.3834 1.08394 74.2394 0.939941 73.9514 0.939941H73.1954C72.8714 0.939941 72.7274 1.08394 72.7274 1.40794V26.0319Z" fill="black"/>
<path d="M82.754 0.939941C82.43 0.939941 82.286 1.08394 82.286 1.40794V26.0319C82.286 26.3559 82.43 26.4999 82.754 26.4999H97.946C98.27 26.4999 98.414 26.3559 98.414 26.0319V25.3839C98.414 25.0959 98.27 24.9519 97.946 24.9519H83.942V14.3319H95.894C96.182 14.3319 96.326 14.1879 96.326 13.8639V13.2159C96.326 12.9279 96.182 12.7839 95.894 12.7839H83.942V2.48794H97.442C97.766 2.48794 97.91 2.34394 97.91 2.05594V1.40794C97.91 1.08394 97.766 0.939941 97.442 0.939941H82.754Z" fill="black"/>
<path d="M102.801 0.939941C102.477 0.939941 102.333 1.08394 102.333 1.40794V2.05594C102.333 2.34394 102.477 2.48794 102.801 2.48794H110.613V26.0319C110.613 26.3559 110.757 26.4999 111.081 26.4999H111.837C112.125 26.4999 112.269 26.3559 112.269 26.0319V2.48794H120.081C120.405 2.48794 120.549 2.34394 120.549 2.05594V1.40794C120.549 1.08394 120.405 0.939941 120.081 0.939941H102.801Z" fill="black"/>
<path d="M123.961 0.939941C123.637 0.939941 123.493 1.08394 123.493 1.40794V2.05594C123.493 2.34394 123.637 2.48794 123.961 2.48794H131.773V26.0319C131.773 26.3559 131.917 26.4999 132.241 26.4999H132.997C133.285 26.4999 133.429 26.3559 133.429 26.0319V2.48794H141.241C141.565 2.48794 141.709 2.34394 141.709 2.05594V1.40794C141.709 1.08394 141.565 0.939941 141.241 0.939941H123.961Z" fill="black"/>
<path d="M147.606 0.939941C147.282 0.939941 147.138 1.08394 147.138 1.40794V26.0319C147.138 26.3559 147.282 26.4999 147.606 26.4999H162.798C163.122 26.4999 163.266 26.3559 163.266 26.0319V25.3839C163.266 25.0959 163.122 24.9519 162.798 24.9519H148.794V14.3319H160.746C161.034 14.3319 161.178 14.1879 161.178 13.8639V13.2159C161.178 12.9279 161.034 12.7839 160.746 12.7839H148.794V2.48794H162.294C162.618 2.48794 162.762 2.34394 162.762 2.05594V1.40794C162.762 1.08394 162.618 0.939941 162.294 0.939941H147.606Z" fill="black"/>
</svg>
