<svg width="62" height="38" viewBox="0 0 62 38" fill="none" xmlns="http://www.w3.org/2000/svg">
<path d="M61.3857 22.6397C61.3857 15.3272 55.7607 8.9991 48.4482 8.57722C49.1514 6.60847 50.417 4.78035 52.2451 3.09285C53.5107 1.96785 53.792 1.1241 52.8076 0.420974C51.8232 -0.282151 49.9951 -0.141526 47.3232 1.1241C43.2451 2.8116 39.8701 5.6241 36.917 9.42097C33.8232 13.7803 32.5576 18.2803 32.9795 22.6397C33.542 32.3428 38.3232 37.1241 47.3232 37.1241C55.0576 37.1241 61.3857 30.6553 61.3857 22.6397ZM28.6201 22.6397C28.6201 15.3272 22.9951 8.9991 15.6826 8.57722C16.3857 6.60847 17.6514 4.78035 19.3389 3.09285C20.7451 1.96785 20.8857 1.1241 19.9014 0.420974C18.917 -0.282151 17.0889 -0.141526 14.417 1.1241C10.3389 2.8116 6.96386 5.6241 4.15136 9.42097C1.05761 13.7803 -0.348641 18.2803 0.0732343 22.6397C0.635734 32.3428 5.41698 37.1241 14.417 37.1241C18.2139 37.1241 21.5889 35.7178 24.4014 32.9053C27.2139 30.0928 28.6201 26.7178 28.6201 22.6397Z" fill="black"/>
</svg>
