<svg width="215" height="37" viewBox="0 0 215 37" fill="none" xmlns="http://www.w3.org/2000/svg">
<path d="M22.4195 0.661133C22.0223 0.661133 21.8236 0.859754 21.8236 1.257V25.1411C21.8236 28.0708 21.0292 30.3549 19.4402 31.9935C17.8016 33.6322 15.4181 34.4763 12.3892 34.4763C7.17537 34.4763 4.09675 31.6956 3.05399 26.0846C2.90503 25.6873 2.65675 25.5384 2.25951 25.6873L1.2664 26.0349C0.869163 26.1839 0.720198 26.4322 0.869163 26.8791C2.11054 33.3839 5.98365 36.6611 12.3892 36.6611C16.1133 36.6611 19.043 35.6184 21.0788 33.5329C23.1147 31.497 24.1078 28.7163 24.1078 25.1411V1.257C24.1078 0.859754 23.9092 0.661133 23.5119 0.661133H22.4195Z" fill="white"/>
<path d="M35.4371 1.30665C35.4371 0.859754 35.2385 0.661133 34.8413 0.661133H33.7985C33.3516 0.661133 33.153 0.859754 33.153 1.30665V23.9991C33.153 27.9218 34.2454 31.0004 36.4302 33.2349C38.6647 35.5191 41.942 36.6611 46.262 36.6611C50.5323 36.6611 53.8096 35.5191 56.0937 33.2349C58.2289 31.0004 59.3213 27.9218 59.3213 23.9991V1.30665C59.3213 0.859754 59.1227 0.661133 58.7254 0.661133H57.633C57.2358 0.661133 57.0371 0.859754 57.0371 1.30665V23.9991C57.0371 27.2763 56.1433 29.8087 54.3558 31.646C52.5185 33.5825 49.7875 34.526 46.262 34.526C42.6868 34.526 39.9558 33.5825 38.1185 31.646C36.3309 29.8087 35.4371 27.2763 35.4371 23.9991V1.30665Z" fill="white"/>
<path d="M69.1773 0.661133C68.7304 0.661133 68.5317 0.859754 68.5317 1.30665V35.2708C68.5317 35.7177 68.7304 35.9163 69.1773 35.9163H88.8904C89.2876 35.9163 89.4862 35.7177 89.4862 35.2708V34.377C89.4862 33.9798 89.2876 33.7811 88.8904 33.7811H70.8159V1.30665C70.8159 0.859754 70.6173 0.661133 70.22 0.661133H69.1773Z" fill="white"/>
<path d="M95.6115 35.2708C95.6115 35.7177 95.8101 35.9163 96.257 35.9163H97.2998C97.697 35.9163 97.8956 35.7177 97.8956 35.2708V1.30665C97.8956 0.859754 97.697 0.661133 97.2998 0.661133H96.257C95.8101 0.661133 95.6115 0.859754 95.6115 1.30665V35.2708Z" fill="white"/>
<path d="M108.062 0.661133C107.615 0.661133 107.416 0.859754 107.416 1.30665V35.2708C107.416 35.7177 107.615 35.9163 108.062 35.9163H129.016C129.463 35.9163 129.662 35.7177 129.662 35.2708V34.377C129.662 33.9798 129.463 33.7811 129.016 33.7811H109.701V19.1329H126.186C126.583 19.1329 126.782 18.9342 126.782 18.4873V17.5935C126.782 17.1963 126.583 16.9977 126.186 16.9977H109.701V2.7963H128.321C128.768 2.7963 128.967 2.59769 128.967 2.20044V1.30665C128.967 0.859754 128.768 0.661133 128.321 0.661133H108.062Z" fill="white"/>
<path d="M134.334 0.661133C133.887 0.661133 133.689 0.859754 133.689 1.30665V2.20044C133.689 2.59769 133.887 2.7963 134.334 2.7963H145.109V35.2708C145.109 35.7177 145.308 35.9163 145.755 35.9163H146.797C147.195 35.9163 147.393 35.7177 147.393 35.2708V2.7963H158.169C158.615 2.7963 158.814 2.59769 158.814 2.20044V1.30665C158.814 0.859754 158.615 0.661133 158.169 0.661133H134.334Z" fill="white"/>
<path d="M162.141 0.661133C161.694 0.661133 161.496 0.859754 161.496 1.30665V2.20044C161.496 2.59769 161.694 2.7963 162.141 2.7963H172.916V35.2708C172.916 35.7177 173.115 35.9163 173.562 35.9163H174.605C175.002 35.9163 175.2 35.7177 175.2 35.2708V2.7963H185.976C186.423 2.7963 186.621 2.59769 186.621 2.20044V1.30665C186.621 0.859754 186.423 0.661133 185.976 0.661133H162.141Z" fill="white"/>
<path d="M193.374 0.661133C192.928 0.661133 192.729 0.859754 192.729 1.30665V35.2708C192.729 35.7177 192.928 35.9163 193.374 35.9163H214.329C214.776 35.9163 214.974 35.7177 214.974 35.2708V34.377C214.974 33.9798 214.776 33.7811 214.329 33.7811H195.013V19.1329H211.499C211.896 19.1329 212.094 18.9342 212.094 18.4873V17.5935C212.094 17.1963 211.896 16.9977 211.499 16.9977H195.013V2.7963H213.634C214.081 2.7963 214.279 2.59769 214.279 2.20044V1.30665C214.279 0.859754 214.081 0.661133 213.634 0.661133H193.374Z" fill="white"/>
</svg>
